<?xml version="1.0" encoding="utf-8"?>
<!-- Generator: Adobe Illustrator 25.0.0, SVG Export Plug-In . SVG Version: 6.00 Build 0)  -->
<svg version="1.1" id="Layer_1" xmlns="http://www.w3.org/2000/svg" xmlns:xlink="http://www.w3.org/1999/xlink" x="0px" y="0px"
	 viewBox="0 0 1080 1080" style="enable-background:new 0 0 1080 1080;" xml:space="preserve">
<style type="text/css">
	.st0{fill:#FFFFFF;}
</style>
<g>
	<g>
		<path class="st0" d="M404.9,669.59h-44.13V453.23c-5.71,4.22-13.59,8.57-23.65,13.03c-10.05,4.47-19.8,8.07-29.23,10.8
			l-12.29-36.68c15.64-4.34,31.28-10.49,46.92-18.43c15.64-7.94,28.67-16.39,39.1-25.32h23.27V669.59z"/>
	</g>
	<path class="st0" d="M515.27,688.9c-26.37,28.88-62.78,49.18-102.16,57.73c-39.39,8.77-81.94,5.11-120.09-10.33
		c-38.21-15.32-71.92-42.37-95.32-76.81c-11.73-17.19-20.85-36.2-27.07-56.11l-1.19-3.73l-1-3.78c-0.64-2.53-1.35-5.04-1.94-7.58
		c-1.04-5.1-2.23-10.18-2.92-15.35c-1.71-10.28-2.49-20.72-2.65-31.16c-0.2-20.89,2.76-41.78,8.58-61.82
		c5.98-19.99,14.76-39.12,26.17-56.51c22.78-34.8,55.93-62.61,93.95-78.53c9.5-3.98,19.28-7.2,29.19-9.8
		c2.48-0.63,4.99-1.15,7.49-1.72l3.74-0.84l3.78-0.65c2.52-0.42,5.03-0.9,7.55-1.25l7.61-0.85c5.05-0.69,10.17-0.72,15.23-1.05
		c2.54-0.16,5.09-0.02,7.63-0.05c2.54,0.05,5.08-0.04,7.61,0.16c5.06,0.41,10.13,0.54,15.14,1.31l7.52,0.97l7.44,1.41
		c19.79,3.92,38.82,10.91,56.3,20.37c17.49,9.46,33.27,21.67,46.83,35.69c-7.98-5.64-15.86-11.28-24.41-15.81
		c-4.12-2.5-8.51-4.52-12.75-6.72c-2.14-1.07-4.38-1.96-6.56-2.94c-2.2-0.94-4.35-1.98-6.61-2.76
		c-17.79-6.89-36.24-11.79-54.97-13.39c-18.67-1.87-37.46-1.24-55.69,2.16l-6.82,1.3l-6.75,1.62l-3.37,0.81l-3.32,0.98
		c-2.21,0.67-4.43,1.28-6.62,1.99c-8.74,2.92-17.25,6.41-25.52,10.36c-16.44,8.12-31.66,18.46-45.15,30.68
		c-6.67,6.18-13.02,12.7-18.82,19.68c-5.75,7.02-11.15,14.32-15.86,22.05c-4.65,7.76-9.04,15.69-12.63,23.98
		c-3.56,8.3-6.73,16.77-9.09,25.48c-4.88,17.36-7.33,35.38-7.07,53.4c0.31,36.05,10.89,72.04,30.49,102.44
		c4.83,7.65,10.38,14.84,16.25,21.75c5.93,6.87,12.39,13.28,19.19,19.33c13.73,11.95,29.13,22.09,45.72,29.91
		c33.16,15.71,71.07,21.95,108.38,17.37C448.1,728.15,484.48,712.87,515.27,688.9z"/>
	<g>
		<path class="st0" d="M542.82,418.24c-2.76-0.8-4.98-1.84-6.65-3.13l2.94-6.52c1.6,1.18,3.51,2.12,5.71,2.83
			c2.21,0.71,4.41,1.07,6.62,1.07c2.46,0,4.27-0.37,5.45-1.1c1.18-0.73,1.76-1.7,1.76-2.91c0-0.89-0.35-1.63-1.04-2.22
			c-0.69-0.59-1.58-1.06-2.67-1.42c-1.09-0.35-2.56-0.75-4.41-1.18c-2.85-0.68-5.18-1.35-7-2.03c-1.82-0.68-3.37-1.76-4.67-3.26
			c-1.3-1.49-1.95-3.49-1.95-5.98c0-2.17,0.59-4.14,1.76-5.9c1.18-1.76,2.95-3.16,5.31-4.19c2.37-1.03,5.26-1.55,8.68-1.55
			c2.39,0,4.72,0.29,7,0.86c2.28,0.57,4.27,1.39,5.98,2.46l-2.67,6.57c-3.46-1.96-6.91-2.94-10.36-2.94c-2.42,0-4.21,0.39-5.37,1.18
			c-1.16,0.78-1.74,1.81-1.74,3.1s0.67,2.23,2,2.86c1.34,0.62,3.37,1.24,6.12,1.84c2.85,0.68,5.18,1.35,7,2.03
			c1.82,0.68,3.37,1.74,4.67,3.2c1.3,1.46,1.95,3.44,1.95,5.93c0,2.14-0.6,4.09-1.79,5.85c-1.19,1.76-2.98,3.16-5.37,4.19
			c-2.39,1.03-5.29,1.55-8.71,1.55C548.43,419.44,545.57,419.04,542.82,418.24z"/>
		<path class="st0" d="M657.84,388.46h-11.96v-7.05h32.58v7.05h-11.96v30.34h-8.65V388.46z"/>
		<path class="st0" d="M767.63,416.93c-3.12-1.67-5.56-3.98-7.32-6.92c-1.76-2.94-2.64-6.24-2.64-9.91c0-3.67,0.88-6.97,2.64-9.91
			c1.76-2.94,4.2-5.24,7.32-6.92c3.11-1.67,6.61-2.51,10.5-2.51c3.88,0,7.37,0.84,10.47,2.51c3.1,1.67,5.54,3.98,7.32,6.92
			c1.78,2.94,2.67,6.24,2.67,9.91c0,3.67-0.89,6.97-2.67,9.91c-1.78,2.94-4.22,5.24-7.32,6.92c-3.1,1.67-6.59,2.51-10.47,2.51
			C774.24,419.44,770.74,418.6,767.63,416.93z M784.1,410.55c1.78-1.02,3.18-2.43,4.19-4.25c1.01-1.82,1.52-3.88,1.52-6.2
			c0-2.31-0.51-4.38-1.52-6.2c-1.01-1.81-2.41-3.23-4.19-4.25c-1.78-1.01-3.77-1.52-5.98-1.52c-2.21,0-4.2,0.51-5.98,1.52
			c-1.78,1.02-3.18,2.43-4.19,4.25c-1.01,1.82-1.52,3.88-1.52,6.2c0,2.32,0.51,4.38,1.52,6.2c1.02,1.81,2.41,3.23,4.19,4.25
			c1.78,1.01,3.77,1.52,5.98,1.52C780.33,412.07,782.32,411.56,784.1,410.55z"/>
		<path class="st0" d="M907.35,383.07c2.44,1.1,4.32,2.67,5.64,4.7c1.32,2.03,1.98,4.43,1.98,7.21c0,2.74-0.66,5.14-1.98,7.19
			c-1.32,2.05-3.2,3.61-5.64,4.7s-5.31,1.63-8.62,1.63h-7.53v10.31h-8.65v-37.39h16.18C902.04,381.41,904.91,381.96,907.35,383.07z
			 M904.17,399.76c1.35-1.12,2.03-2.72,2.03-4.78c0-2.1-0.68-3.71-2.03-4.83c-1.35-1.12-3.33-1.68-5.93-1.68h-7.05v12.98h7.05
			C900.84,401.44,902.82,400.88,904.17,399.76z"/>
	</g>
	<g>
		<path class="st0" d="M910.27,619.19H811.5c-3.16,0-5.64-1.13-7.44-3.38c-1.81-2.25-2.71-4.62-2.71-7.1v-15.9
			c0-4.51-1.81-8.57-5.41-12.18c-3.61-3.6-8.01-5.41-13.19-5.41h102.49c2.48,0,4.57-0.85,6.26-2.54c1.69-1.69,2.54-3.77,2.54-6.26
			v-30.44c0-2.48-0.85-4.57-2.54-6.26c-1.69-1.69-3.78-2.54-6.26-2.54H811.5c-3.38,0-5.92-1.13-7.61-3.38
			c-1.69-2.25-2.54-4.62-2.54-7.1v-14.21c0-4.51-1.75-8.68-5.24-12.52c-3.5-3.83-7.95-5.75-13.36-5.75h124.82
			c2.71,0,4.85-0.79,6.43-2.37c1.58-1.35,2.37-3.27,2.37-5.75v-13.64l-117.02-5.48l117.02-5.48v-8.89c0-2.48-0.85-4.57-2.54-6.26
			c-1.69-1.69-3.78-2.54-6.26-2.54H769.55c-7.9,0-14.77,2.76-20.63,8.29c-5.87,5.53-8.79,12.57-8.79,21.14v197.88
			c0,2.26,0.85,4.23,2.54,5.92c1.69,1.69,3.66,2.54,5.92,2.54h161.69c2.48,0,4.57-0.73,6.26-2.2c1.69-1.46,2.54-3.55,2.54-6.26
			v-33.15C919.06,622.12,916.13,619.19,910.27,619.19z"/>
		<path class="st0" d="M691.08,435.85c-1.58-1.58-3.61-2.37-6.09-2.37h-14.38l-5.06,107.95l-5.05-107.82
			c-6.54,0.59-12.47,3.26-17.79,7.99c-6.09,5.41-9.13,12.52-9.13,21.31v96.4c0,1.13-0.57,1.69-1.69,1.69c-0.9,0-1.35-0.22-1.35-0.68
			c-0.45-0.68-1.81-2.82-4.06-6.43c-2.26-3.61-5.07-7.95-8.46-13.02c-3.38-5.07-6.93-10.6-10.66-16.57
			c-3.72-5.97-8.85-14.04-15.39-24.19c-10.6-16.69-22.55-35.4-35.86-56.15c-3.61-4.96-7.1-7.95-10.49-8.96
			c-3.38-1.01-6.32-1.52-8.79-1.52h-11.16c-8.35,0-15.34,2.93-20.97,8.79c-5.64,5.87-8.46,12.74-8.46,20.63v197.88
			c0,2.03,0.9,3.95,2.71,5.75c1.8,1.81,3.72,2.71,5.75,2.71h42.96c2.25,0,4.28-0.79,6.09-2.37c1.8-1.58,2.71-3.61,2.71-6.09V548.15
			c0-1.13,0.56-1.69,1.69-1.69c0.45,0,1.02,0.34,1.69,1.01c0.45,0.68,1.8,2.76,4.06,6.26c2.25,3.5,5.07,7.78,8.46,12.85
			c3.38,5.07,6.99,10.6,10.82,16.57c3.83,5.98,9.02,13.93,15.56,23.85c10.82,16.46,23,35.07,36.53,55.81
			c2.71,4.29,6.54,6.43,11.5,6.43h38.22c2.25,0,4.28-0.9,6.09-2.71c1.58-2.03,2.37-4.06,2.37-6.09V442.28
			C693.45,440.03,692.65,437.88,691.08,435.85z"/>
	</g>
	<g>
		<path class="st0" d="M543.04,691.51v16.21h-3.75v-6.65h-7.36v6.65h-3.75v-16.21h3.75v6.39h7.36v-6.39H543.04z"/>
		<path class="st0" d="M565.24,706.9c-1.35-0.73-2.41-1.73-3.17-3c-0.76-1.28-1.15-2.7-1.15-4.3c0-1.59,0.38-3.02,1.15-4.29
			c0.76-1.27,1.82-2.27,3.17-3c1.35-0.73,2.87-1.09,4.55-1.09s3.2,0.36,4.54,1.09c1.34,0.73,2.4,1.73,3.17,3s1.16,2.7,1.16,4.29
			c0,1.59-0.39,3.02-1.16,4.3c-0.77,1.27-1.83,2.27-3.17,3c-1.34,0.73-2.86,1.09-4.54,1.09S566.59,707.63,565.24,706.9z
			 M572.38,704.14c0.77-0.44,1.38-1.05,1.82-1.84c0.44-0.79,0.66-1.68,0.66-2.69c0-1-0.22-1.9-0.66-2.69
			c-0.44-0.79-1.05-1.4-1.82-1.84c-0.77-0.44-1.64-0.66-2.59-0.66s-1.82,0.22-2.59,0.66c-0.77,0.44-1.38,1.05-1.82,1.84
			c-0.44,0.79-0.66,1.68-0.66,2.69c0,1,0.22,1.9,0.66,2.69c0.44,0.79,1.05,1.4,1.82,1.84c0.77,0.44,1.64,0.66,2.59,0.66
			S571.61,704.58,572.38,704.14z"/>
		<path class="st0" d="M611.28,707.72l-0.02-9.73l-4.77,8.01h-1.69l-4.75-7.8v9.52h-3.52v-16.21h3.1l6.07,10.07l5.97-10.07h3.08
			l0.05,16.21H611.28z"/>
		<path class="st0" d="M646.25,704.71v3.01H633.7v-16.21h12.25v3.01h-8.52v3.52h7.53v2.92h-7.53v3.75H646.25z"/>
		<path class="st0" d="M687.5,707.47c-1.2-0.35-2.16-0.8-2.88-1.35l1.27-2.83c0.69,0.51,1.52,0.92,2.48,1.23
			c0.96,0.31,1.91,0.46,2.87,0.46c1.07,0,1.85-0.16,2.36-0.47c0.51-0.32,0.76-0.74,0.76-1.26c0-0.38-0.15-0.71-0.45-0.96
			c-0.3-0.26-0.69-0.46-1.16-0.61s-1.11-0.32-1.91-0.51c-1.24-0.3-2.25-0.59-3.03-0.88c-0.79-0.29-1.46-0.76-2.03-1.41
			c-0.56-0.65-0.85-1.51-0.85-2.59c0-0.94,0.25-1.79,0.76-2.56c0.51-0.76,1.28-1.37,2.3-1.82c1.03-0.45,2.28-0.67,3.76-0.67
			c1.03,0,2.05,0.12,3.03,0.37c0.99,0.25,1.85,0.6,2.59,1.06l-1.16,2.85c-1.5-0.85-3-1.27-4.49-1.27c-1.05,0-1.83,0.17-2.33,0.51
			c-0.5,0.34-0.75,0.79-0.75,1.34c0,0.55,0.29,0.97,0.87,1.24c0.58,0.27,1.46,0.53,2.65,0.8c1.24,0.29,2.25,0.59,3.03,0.88
			c0.79,0.29,1.46,0.75,2.03,1.39c0.56,0.63,0.85,1.49,0.85,2.57c0,0.93-0.26,1.77-0.78,2.54c-0.52,0.76-1.29,1.37-2.33,1.82
			c-1.03,0.45-2.29,0.67-3.77,0.67C689.93,707.99,688.69,707.82,687.5,707.47z"/>
		<path class="st0" d="M728.26,704.71v3.01h-12.55v-16.21h12.25v3.01h-8.52v3.52h7.53v2.92h-7.53v3.75H728.26z"/>
		<path class="st0" d="M756.63,707.72l-3.13-4.51h-0.19h-3.27v4.51h-3.75v-16.21h7.02c1.44,0,2.68,0.24,3.74,0.72
			c1.06,0.48,1.87,1.16,2.44,2.04c0.57,0.88,0.86,1.92,0.86,3.13c0,1.2-0.29,2.24-0.87,3.11c-0.58,0.87-1.4,1.54-2.47,2l3.64,5.21
			H756.63z M755.68,695.29c-0.59-0.48-1.44-0.73-2.57-0.73h-3.06v5.65h3.06c1.13,0,1.98-0.25,2.57-0.74
			c0.59-0.49,0.88-1.19,0.88-2.08C756.56,696.48,756.26,695.78,755.68,695.29z"/>
		<path class="st0" d="M793.95,691.51l-7.02,16.21h-3.71l-6.99-16.21h4.05l4.93,11.58l5-11.58H793.95z"/>
		<path class="st0" d="M810.35,691.51h3.75v16.21h-3.75V691.51z"/>
		<path class="st0" d="M836.27,706.92c-1.34-0.72-2.38-1.71-3.15-2.99c-0.76-1.27-1.15-2.71-1.15-4.32c0-1.6,0.38-3.04,1.15-4.32
			c0.76-1.27,1.81-2.27,3.15-2.99c1.34-0.72,2.84-1.08,4.5-1.08c1.4,0,2.67,0.25,3.81,0.74c1.13,0.49,2.09,1.2,2.86,2.13l-2.41,2.22
			c-1.1-1.27-2.45-1.9-4.08-1.9c-1,0-1.9,0.22-2.69,0.66c-0.79,0.44-1.4,1.05-1.84,1.84c-0.44,0.79-0.66,1.68-0.66,2.69
			c0,1,0.22,1.9,0.66,2.69c0.44,0.79,1.05,1.4,1.84,1.84c0.79,0.44,1.68,0.66,2.69,0.66c1.62,0,2.98-0.64,4.08-1.92l2.41,2.22
			c-0.77,0.94-1.73,1.66-2.87,2.15c-1.14,0.49-2.42,0.74-3.82,0.74C839.1,707.99,837.6,707.64,836.27,706.92z"/>
		<path class="st0" d="M877.57,704.71v3.01h-12.55v-16.21h12.25v3.01h-8.52v3.52h7.53v2.92h-7.53v3.75H877.57z"/>
		<path class="st0" d="M897.21,707.47c-1.2-0.35-2.16-0.8-2.88-1.35l1.27-2.83c0.69,0.51,1.52,0.92,2.48,1.23
			c0.96,0.31,1.91,0.46,2.87,0.46c1.07,0,1.85-0.16,2.36-0.47c0.51-0.32,0.76-0.74,0.76-1.26c0-0.38-0.15-0.71-0.45-0.96
			c-0.3-0.26-0.69-0.46-1.16-0.61s-1.11-0.32-1.91-0.51c-1.24-0.3-2.25-0.59-3.03-0.88c-0.79-0.29-1.46-0.76-2.03-1.41
			c-0.56-0.65-0.85-1.51-0.85-2.59c0-0.94,0.25-1.79,0.76-2.56c0.51-0.76,1.28-1.37,2.3-1.82c1.03-0.45,2.28-0.67,3.76-0.67
			c1.03,0,2.05,0.12,3.03,0.37c0.99,0.25,1.85,0.6,2.59,1.06l-1.16,2.85c-1.5-0.85-3-1.27-4.49-1.27c-1.05,0-1.83,0.17-2.33,0.51
			c-0.5,0.34-0.75,0.79-0.75,1.34c0,0.55,0.29,0.97,0.87,1.24c0.58,0.27,1.46,0.53,2.65,0.8c1.24,0.29,2.25,0.59,3.03,0.88
			c0.79,0.29,1.46,0.75,2.03,1.39c0.56,0.63,0.85,1.49,0.85,2.57c0,0.93-0.26,1.77-0.78,2.54c-0.52,0.76-1.29,1.37-2.33,1.82
			c-1.03,0.45-2.29,0.67-3.77,0.67C899.65,707.99,898.41,707.82,897.21,707.47z"/>
	</g>
</g>
</svg>
