<svg xmlns="http://www.w3.org/2000/svg" width="28" height="24" viewBox="0 0 28 24">
  <g fill="none" fill-rule="evenodd" transform="translate(0 3)">
    <path fill="#F22F12" d="M8.5274,0.5148 C13.1664909,0.5148 16.9274,4.3128 16.9274,9.00051429 C16.9274,13.6869429 13.1664909,17.4849429 8.5274,17.4849429 C3.88703636,17.4849429 0.126127273,13.6869429 0.126127273,9.00051429 C0.126127273,4.3128 3.88703636,0.5148 8.5274,0.5148"/>
    <path fill="#F79F1A" d="M19.7271455,0.642857143 C24.3089636,0.771428571 27.9998727,4.5 27.8726,9.12857143 C27.7453273,13.7571429 24.0544182,17.4857143 19.4726,17.3571429 C14.8907818,17.2285714 11.3271455,13.6285714 11.3271455,9 C11.3271455,4.37142857 15.1453273,0.642857143 19.7271455,0.642857143"/>
    <path fill="#FF5F01" d="M11.3276545,9 C11.3276545,6.55714286 12.3458364,4.37142857 14.1263818,2.82857143 C17.5627455,5.78571429 17.8185636,11.0571429 14.8912909,14.4 L14.1263818,15.1714286 C12.3458364,13.6285714 11.3276545,11.4428571 11.3276545,9"/>
  </g>
</svg>
