<svg width="36" height="24" viewBox="0 0 36 24" fill="none" xmlns="http://www.w3.org/2000/svg">
<g clip-path="url(#clip0_9683_87428)">
<path d="M17.6935 7.3099L15.3355 18.2878H12.484L14.8429 7.3099H17.6935ZM29.6911 14.398L31.192 10.2762L32.0558 14.398H29.6911ZM32.8728 18.2878H35.5102L33.2081 7.3099H30.7738C30.2264 7.3099 29.7648 7.6272 29.5603 8.1153L25.2811 18.2878H28.2754L28.8701 16.6479H32.5285L32.8728 18.2878ZM25.43 14.7035C25.4421 11.8062 21.4069 11.6465 21.4347 10.3523C21.4433 9.95838 21.82 9.53963 22.6442 9.43261C23.0528 9.37931 24.1786 9.33862 25.4555 9.92391L25.9563 7.59607C25.2703 7.34812 24.3875 7.10938 23.289 7.10938C20.4704 7.10938 18.4868 8.60161 18.4701 10.7382C18.4519 12.3186 19.8859 13.2005 20.9662 13.7256C22.0777 14.2635 22.4505 14.609 22.4464 15.0901C22.4384 15.8265 21.5599 16.1516 20.7389 16.1643C19.3056 16.1863 18.4739 15.7781 17.8108 15.4711L17.294 17.8761C17.9603 18.1805 19.1901 18.4461 20.4652 18.4594C23.4611 18.4594 25.4207 16.9857 25.43 14.7035ZM13.6191 7.3099L8.99891 18.2878H5.98462L3.71102 9.52691C3.57293 8.98723 3.45304 8.78965 3.03325 8.56237C2.34791 8.19198 1.21596 7.84466 0.220215 7.62896L0.287872 7.3099H5.14012C5.75861 7.3099 6.31456 7.71993 6.45496 8.42928L7.65574 14.7817L10.6235 7.3099H13.6191Z" fill="#1434CB"/>
</g>
<defs>
<clipPath id="clip0_9683_87428">
<rect width="36" height="24" fill="white"/>
</clipPath>
</defs>
</svg>
